<?xml version="1.0" encoding="UTF-8"?>
<svg id="Layer_1" xmlns="http://www.w3.org/2000/svg" version="1.1" viewBox="0 0 100 100">
  <!-- Generator: Adobe Illustrator 30.1.0, SVG Export Plug-In . SVG Version: 2.1.1 Build 136)  -->
  <path d="M83.41,54.36c-.17-.37-.38-.72-.62-1.05,1.5-2.38,1.06-4.98.64-7.5-.08-.48-.16-.96-.23-1.45l-.09-.63-.61-.19c-.63-.19-1.74.1-2.13.72-1.06,1.67-2.09,2.44-3.08,3.19-1.23.92-2.4,1.8-2.97,3.99l-.71.22-.6.98c-.42-2.12-1.11-3.98-2.12-5.72.84-.37,1.55-.94,2.06-1.7.8-1.19,1.04-2.73.66-4.23-.69-2.69-3.13-4.37-6.07-4.37-.01,0-.02,0-.03,0,.2-1.39-.04-2.77-.72-3.99-.96-1.73-2.7-2.96-4.79-3.38-.34-.07-1.17-.23-1.79.18-.2-.22-.42-.43-.67-.63,1.18-1.9,1.05-4.19-.44-5.86-.61-.68-1.37-1.19-2.14-1.65.97-1.88.6-4.18-1.03-5.63-.49-.44-1.03-.81-1.6-1.18,1.08-2.12.32-3.46-.54-4.98-.77-1.36-1.74-3.06-2.01-6.23-.05-.56-.46-1.11-.86-1.42-.44-.35-.84-.37-1.1-.32-1.28.21-1.49,1.42-1.7,2.59-.24,1.33-.6,3.35-2.25,5.87-.92,1.41-1.02,3.1-.33,4.5-.94.59-1.84,1.3-2.46,2.32-.88,1.44-.91,3.09-.13,4.52-.7.41-1.38.86-1.96,1.45-1.68,1.7-1.87,4.11-.61,6.06-.21.17-.41.35-.58.54-1.07-.56-3.51.26-4.86,1.34-1.89,1.51-2.74,3.68-2.41,6-1.34.09-2.6.58-3.62,1.41-1.29,1.06-2.06,2.58-2.17,4.27-.12,1.92.79,3.55,2.39,4.44-1.11,1.9-1.75,3.8-2.15,5.66l-.09-.16c-.23-.4-.71-.69-1.17-.89-.82-2.41-2.05-3.33-3.25-4.22-.94-.7-1.83-1.36-2.72-2.85-.37-.63-1.36-.89-1.89-.81-.49.08-.85.41-.95.86-.59,2.64-1.39,6.18.32,8.92-.26.4-.51.87-.77,1.45-2.04,4.67-1.91,9.32.37,13.09,1.24,2.04,2.99,3.53,5.01,4.36-.5.11-1.01.28-1.53.51l-1.57.69,1.38,1.03c1.84,1.37,2.71,2.79,3.01,4.91.54,3.79,2.42,6.74,5.33,8.46-.59.6-1.11,1.34-1.4,2.33-2.93,1.12-4.71,4.02-4.5,7.4l.06.94,41.96-.02h12.72s.08-.9.08-.9c.3-3.33-1.52-6.3-4.49-7.42-.3-.99-.83-1.74-1.44-2.34,2.05-1.21,3.48-2.83,4.34-4.91.67-1.62.92-2.85,1.12-3.83.36-1.78.56-2.76,2.99-4.67l1.3-1.02-1.51-.68c-.54-.24-1.08-.41-1.62-.52,2.29-.94,4.27-2.72,5.52-5.14,1.9-3.69,1.84-8.31-.17-12.69ZM27.85,93.33h44.24c.76.49,1.28,1.1,1.61,1.91H26.22c.3-.79.84-1.42,1.63-1.91ZM19.65,55.78c.65.07,1.31-.02,1.71-.53,1.07-1.36,0-2.34-.5-2.82-.63-.59-1.46-1.35-1.36-3.35l1.78,1.42c.76.61,1.23,1.48,1.29,2.39.05.8-.21,1.56-.75,2.12-.5.52-.65,1.52-.57,2.04l.17,1.09,1.07-.27c1.27-.32,2.08-.94,2.74-1.71.8,1.33,1.07,2.49.35,3.57-.05.06-.18.15-.28.21-.13-.04-.35-.14-.59-.3-.5-.32-1.1-.41-1.69-.25-.69.19-1.3.69-1.64,1.35-.93,1.82-.45,4.04,1.16,5.38,1.59,1.33,3.83,1.4,5.56.17,1.15-.81,1.88-2,2.11-3.37.32,1.2.74,2.36,1.26,3.46l-.9.94c-2.45,2.59-5.61,3.08-8.45,1.32-4.15-2.58-4.59-8.67-2.46-12.87ZM31.1,40.55c.66-.54,1.78-.87,2.81-.39l3.28,1.5c-1.02.83-1.96,1.75-2.81,2.75,0-.55-.31-.83-.5-.96-.2-.13-.4-.18-.59-.18-.39,0-.75.22-1.04.39-.4.24-.94.56-1.34.44-.16-.06-.58-.47-.68-.81-.33-1.03-.01-2.02.87-2.74ZM37.57,35.74c.58.63,1.82.84,2.53.61.86-.28,1.6-1.5,1.47-2.41-.17-1.23.25-2.7,1.97-3.15,4.14-1.08,8.71-1.09,12.88-.02,1.33.34,2.13,1.54,1.96,2.93-.11.89.33,1.89,1.02,2.38l-.02.14.11-.07c.09.06.19.11.29.15.86.35,2.18,0,2.77-.72.51-.63.74-1.32.82-2,.78.77,1.18,1.9.75,3.18-.21.62-.55,1.26-.91,1.93-.2.38-.41.76-.6,1.16l-.57,1.18c-3.43-2.5-7.61-3.9-12.04-3.9-.92,0-1.85.06-2.79.19-3.39.45-6.53,1.77-9.19,3.71l-.63-1.25c-.2-.4-.39-.76-.57-1.09-.32-.6-.6-1.12-.83-1.7-.33-.85-.31-1.76.06-2.56.15-.32.35-.6.59-.85.09.75.33,1.48.94,2.16ZM53.76,20.15c-2.76-.4-5.2-.39-7.61.04-.17-.18-.29-.41-.34-.68-.08-.43.01-.87.26-1.21.8-1.07,2.26-1.71,3.87-1.71.09,0,.18,0,.27,0,1.65.07,3.06.8,3.77,1.96.28.46.17,1.13-.22,1.6ZM51.25,13.35c-.75.04-1.8.07-2.48.05-.14-.12-.23-.27-.28-.47-.11-.42,0-.97.25-1.37.48-.74.86-1.47,1.21-2.22.34.78.76,1.58,1.27,2.38.22.34.47,1.08.02,1.63ZM56.53,27.34c-4.58-.87-8.98-.86-13.09.03-.31-.31-.5-.71-.52-.98-.15-1.91,2.75-2.91,4.61-3.09.88-.08,1.82-.15,2.77-.15,2.25,0,4.54.37,6.1,1.75.41.36.62.83.6,1.33-.02.4-.18.78-.47,1.1ZM75.6,63.1c-.09.23-.23.4-.35.5-.39.33-1.08.32-1.54-.04-.29-.23-.49-.5-.61-.81.21.12.44.21.67.28.59.18,1.21.2,1.83.06ZM67.82,89.36c.49,0,.92.29,1.25.68H30.82c.34-.41.82-.69,1.35-.69h35.66ZM32.31,68c1.04,1.77,2.34,3.38,3.87,4.77-1.08-.37-2.21-.61-3.38-.71l-1.13-.09.1,2.45c-.57-.26-1.05-.57-1.45-1.01-.5-.55-.35-1.03.77-2.52.68-.9,1.38-1.84,1.22-2.88ZM65.14,79.44c.1,3.38-2.01,6.11-5.13,6.67h-2.35c.58-1.12.78-2.26.99-3.44l.04-.24c.53-3.02,2.89-5.5,6.14-6.56.14,1.22.27,2.39.3,3.57ZM56.05,77.13c.72-.22,1.42-.48,2.1-.77-.49.55-.94,1.15-1.32,1.8-.25-.34-.51-.69-.78-1.04ZM35.04,75.89c3.74,1.23,5.97,3.87,6.32,7.58.18,1.03.48,1.84.91,2.63h-2.58c-4.8-1.43-5.45-4.84-4.64-10.2ZM41.71,76.35c.67.29,1.35.55,2.06.78-.25.32-.5.65-.73.99-.38-.63-.83-1.22-1.33-1.77ZM44.87,82.06c.33-1.57,1.24-2.98,2.64-4.09l2.45-1.95,1.77,1.45c1.24,1.02,2.13,2.05,2.89,3.37.58,1.01.66,2.42.19,3.5-.25.58-.77,1.32-1.82,1.58h0c-1.73.42-3.85.28-5.88.07-.78-.08-1.3-.58-1.6-.99-.6-.82-.85-1.97-.64-2.94ZM60.35,71.26c-2.04,1.56-4.37,2.58-7.11,3.11l-3.27-2.62-3.32,2.65c-6.57-1.19-11.77-6.15-13.31-12.74-2.13-9.12,3.21-18.18,12.17-20.62,1.47-.4,2.96-.59,4.44-.59,6.31,0,12.33,3.54,15.28,9.39,3.73,7.39,1.68,16.4-4.88,21.43ZM69.01,71.16c.48.59.75.95.76,1.44,0,.26-.36.94-.56,1.08l-1.04.62.09-2.36-1.12.09c-1.07.08-2.2.31-3.32.69,1.51-1.38,2.82-2.99,3.87-4.79v.27c.04,1.39.75,2.27,1.32,2.97ZM70.06,41.14c.24.37.5.97.32,1.74-.11.47-.59.99-.86,1.11-.51.22-.77.12-1.45-.24-.27-.14-.55-.28-.85-.4l-.8-.22-.44.65c-.12.18-.22.45-.26.73-.85-1.03-1.79-1.96-2.8-2.79l1.35-.71c1.42-.75,2.53-1.34,3.83-1.11.82.15,1.53.6,1.95,1.23ZM26.11,63.65c-.52.33-1.12.29-1.49-.08-.11-.11-.21-.27-.28-.46.48.13.97.16,1.46.07.35-.06.7-.18,1.03-.35-.14.32-.38.61-.71.82ZM30.27,77.86c.97.97,1.13,1.97,1.32,3.23.22,1.43.48,3.13,2.04,5-1.46-.1-2.83-.59-3.99-1.44-1.73-1.27-2.86-3.22-3.17-5.51-.17-1.29-.53-2.5-1.09-3.65,1.91.26,3.6,1.08,4.89,2.37ZM70.07,84.78c-1.12.76-2.42,1.2-3.79,1.29,1.54-1.82,1.82-3.64,2.07-5.17.17-1.06.3-1.89.8-2.49,1.36-1.64,3.32-2.67,5.45-2.93-.64,1.29-.93,2.64-1.19,4.01-.42,2.23-1.6,4.11-3.33,5.29ZM74.78,69.66c-1.99.19-3.62-.76-5.46-2.26l-.95-.77c.56-1.15,1.01-2.34,1.34-3.55.14.69.42,1.35.83,1.94.85,1.21,2.2,1.99,3.71,2.13,1.64.17,3.12-.8,3.87-1.82,1.3-1.78,1.03-3.64.34-4.79-.53-.89-1.28-1.37-2.01-1.26-.38.05-.81.24-1.23.42-.13.06-.27.12-.38.16-.11.04-.17.04-.26-.02-.29-.18-.55-.71-.59-1.19-.07-.87.27-1.7.74-2.47.66.76,1.52,1.41,2.84,1.64l1.18.21v-1.19c0-.38-.16-1.39-.6-1.9-.57-.66-.84-1.42-.77-2.19.08-.82.54-1.61,1.29-2.22l1.83-1.46c.15,1.98-.63,2.71-1.28,3.32-.51.48-1.38,1.29-.75,2.51.17.33.69,1,1.92.91,1.28,2.75,1.58,5.74.8,8.29-.96,3.15-3.41,5.28-6.4,5.57ZM54.85,46.68c-3.24-1.86-7.24-1.85-10.46,0-3.13,1.81-4.69,5.15-3.98,8.51.34,1.62,1.32,3.03,2.61,3.77,1.53.87,3.28.97,4.82.29,1.45-.65,2.53-1.96,2.76-3.34.31-1.83-.28-3.44-1.62-4.4-.99-.71-2.11-.96-3.12-.74,1.61-1.13,3.82-1.39,5.74-.64,1.86.73,3.05,2.52,3.03,4.56l-.06,5.66c-.82-.77-1.75-1.32-3.04-1.43-2.16-.18-4.17.83-5.14,2.58-1.02,1.84-.92,4.07.25,5.83.99,1.49,2.64,2.34,4.47,2.34.17,0,.33,0,.5-.02,1.12-.09,2.09-.93,2.26-1.94.12-.69-.29-1.58-.74-2-.49-.47-.99-.44-1.23-.39-1.3.28-1.56.01-1.78-.36-.22-.39-.24-1.05.08-1.38.33-.35.94-.54,1.41-.22.41.28.73.74,1.06,1.23.68.98,1.7,2.47,3.93,1.89,1.08-.28,2.58-1.53,2.58-3.14l.03-9.31c0-3-1.63-5.74-4.38-7.32ZM44.5,55.02c.12.08.25.13.36.17l.46.12.38-.28c.43-.31.77-.38.83-.31.11.11.18.5-.04.79-.13.17-.72.32-1.16.18-.21-.07-.63-.37-.83-.66Z"/>
</svg>